<?xml version="1.0" encoding="UTF-8" standalone="no"?><!DOCTYPE svg PUBLIC "-//W3C//DTD SVG 1.1//EN" "http://www.w3.org/Graphics/SVG/1.1/DTD/svg11.dtd"><svg width="100%" height="100%" viewBox="0 0 2 3" version="1.1" xmlns="http://www.w3.org/2000/svg" xmlns:xlink="http://www.w3.org/1999/xlink" xml:space="preserve" style="fill-rule:evenodd;clip-rule:evenodd;stroke-linejoin:round;stroke-miterlimit:1.41421;"><rect id="Mesa-de-trabajo1" x="0" y="0" width="2" height="3" style="fill:none;"/><clipPath id="_clip1"><rect x="0" y="0" width="2" height="3"/></clipPath><g clip-path="url(#_clip1)"><path d="M0.5,1.848c-0.087,-0.006 -0.162,-0.061 -0.189,-0.142c-0.067,-0.202 -0.044,-0.171 -0.223,-0.295c-0.056,-0.039 -0.088,-0.101 -0.088,-0.165c0,-0.021 0.003,-0.043 0.011,-0.064c0.069,-0.201 0.069,-0.162 0,-0.365c-0.008,-0.02 -0.011,-0.042 -0.011,-0.063c0,-0.064 0.032,-0.126 0.088,-0.165c0.179,-0.124 0.156,-0.093 0.223,-0.296c0.028,-0.084 0.11,-0.141 0.202,-0.141l0.001,0c0.22,0.001 0.181,0.014 0.361,-0.113c0.037,-0.026 0.081,-0.039 0.125,-0.039c0.044,0 0.088,0.013 0.125,0.039c0.179,0.126 0.14,0.114 0.361,0.113l0.001,0c0.092,0 0.174,0.057 0.202,0.141c0.067,0.203 0.044,0.171 0.223,0.296c0.056,0.039 0.088,0.101 0.088,0.165c0,0.021 -0.003,0.043 -0.011,0.063c-0.069,0.202 -0.069,0.163 0,0.365c0.008,0.021 0.011,0.043 0.011,0.064c0,0.064 -0.032,0.126 -0.088,0.165c-0.179,0.125 -0.156,0.093 -0.223,0.295c-0.027,0.081 -0.102,0.136 -0.189,0.142l0,1.152l-0.495,-0.375l-0.505,0.375l0,-1.152Zm1.214,-0.848c0,-0.394 -0.319,-0.714 -0.714,-0.714c-0.394,0 -0.714,0.32 -0.714,0.714c0,0.394 0.32,0.714 0.714,0.714c0.395,0 0.714,-0.32 0.714,-0.714Zm-0.714,-0.5c-0.276,0 -0.5,0.224 -0.5,0.5c0,0.276 0.224,0.5 0.5,0.5c0.276,0 0.5,-0.224 0.5,-0.5c0,-0.276 -0.224,-0.5 -0.5,-0.5Z" style="fill:#319dbe;"/></g></svg>