<?xml version="1.0" encoding="UTF-8" standalone="no"?><!DOCTYPE svg PUBLIC "-//W3C//DTD SVG 1.1//EN" "http://www.w3.org/Graphics/SVG/1.1/DTD/svg11.dtd"><svg width="100%" height="100%" viewBox="0 0 3 3" version="1.1" xmlns="http://www.w3.org/2000/svg" xmlns:xlink="http://www.w3.org/1999/xlink" xml:space="preserve" style="fill-rule:evenodd;clip-rule:evenodd;stroke-linejoin:round;stroke-miterlimit:1.41421;"><rect id="Mesa-de-trabajo1" x="0" y="0" width="3" height="3" style="fill:none;"/><clipPath id="_clip1"><rect x="0" y="0" width="3" height="3"/></clipPath><g clip-path="url(#_clip1)"><path d="M2.875,3l-2.75,0l0,-0.25l0.125,0l0,-0.875l-0.25,0l0.375,-1.125l0.679,0l0.321,-0.275l0,-0.475l0.625,0l-0.125,0.186l0.125,0.189l-0.5,0l0.446,0.375l0.679,0l0.375,1.125l-0.25,0l0,0.875l0.125,0l0,0.25Zm-1.5,-0.625l-0.125,0l0,0.5l0.125,0l0,-0.5Zm0.375,0l-0.125,0l0,0.5l0.125,0l0,-0.5Zm0.75,-0.5l-2,0l0,0.875l0.5,0l0,-0.625l1,0l0,0.625l0.5,0l0,-0.875Zm-1.875,0.5l0.25,0l0,0.25l-0.25,0l0,-0.25Zm1.75,0l0,0.25l-0.25,0l0,-0.25l0.25,0Zm-1.75,-0.375l0.25,0l0,0.25l-0.25,0l0,-0.25Zm1.5,0l0.25,0l0,0.25l-0.25,0l0,-0.25Zm0.113,-1l-0.162,0.189l-0.576,-0.494l-0.576,0.494l-0.162,-0.189l-0.207,0l-0.208,0.625l2.306,0l-0.208,-0.625l-0.207,0Zm-0.738,-0.063c0.173,0 0.313,0.14 0.313,0.313c0,0.172 -0.14,0.312 -0.313,0.312c-0.172,0 -0.312,-0.14 -0.312,-0.312c0,-0.173 0.14,-0.313 0.312,-0.313Zm0,0.188l-0.095,0l0,0.225l0.22,0l0,-0.1l-0.125,0l0,-0.125Z" style="fill:#2c3e4f;"/></g></svg>