<?xml version="1.0" encoding="UTF-8" standalone="no"?><!DOCTYPE svg PUBLIC "-//W3C//DTD SVG 1.1//EN" "http://www.w3.org/Graphics/SVG/1.1/DTD/svg11.dtd"><svg width="100%" height="100%" viewBox="0 0 3 3" version="1.1" xmlns="http://www.w3.org/2000/svg" xmlns:xlink="http://www.w3.org/1999/xlink" xml:space="preserve" style="fill-rule:evenodd;clip-rule:evenodd;stroke-linejoin:round;stroke-miterlimit:1.41421;"><rect id="Mesa-de-trabajo1" x="0" y="0" width="3" height="3" style="fill:none;"/><clipPath id="_clip1"><rect x="0" y="0" width="3" height="3"/></clipPath><g clip-path="url(#_clip1)"><path d="M0.5,1.797l0,-0.402c0,-0.096 -0.06,-0.145 -0.124,-0.145c-0.063,0 -0.126,0.048 -0.126,0.145l0,0.511c0,0.1 0.009,0.147 0.072,0.262c0.099,0.18 0.28,0.432 0.28,0.832l0.625,0c0,0 0.07,-0.22 0.096,-0.368c0.051,-0.297 -0.016,-0.434 -0.139,-0.56c-0.128,-0.132 -0.191,-0.194 -0.249,-0.255c-0.136,-0.14 -0.319,0.024 -0.212,0.153c0.058,0.07 0.203,0.225 0.237,0.271c0.034,0.045 -0.028,0.107 -0.078,0.056c-0.071,-0.075 -0.238,-0.26 -0.295,-0.327c-0.055,-0.064 -0.087,-0.104 -0.087,-0.173l0,0Zm1.898,1.203l-0.625,0c0,0 -0.07,-0.22 -0.096,-0.368c-0.051,-0.297 0.016,-0.434 0.139,-0.56c0.128,-0.132 0.191,-0.194 0.25,-0.255c0.135,-0.14 0.319,0.024 0.211,0.153c-0.058,0.07 -0.203,0.225 -0.237,0.271c-0.034,0.045 0.029,0.107 0.078,0.056c0.071,-0.075 0.238,-0.26 0.295,-0.327c0.056,-0.064 0.087,-0.104 0.087,-0.173l0,-0.402c0,-0.096 0.06,-0.145 0.124,-0.145c0.063,0 0.126,0.048 0.126,0.145l0,0.511c0,0.1 -0.009,0.147 -0.072,0.262c-0.099,0.18 -0.28,0.475 -0.28,0.832l0,0Zm-0.71,-1.083l-0.099,0.065c-0.013,0.011 -0.032,0.018 -0.052,0.018l-0.074,0c-0.02,0 -0.039,-0.007 -0.052,-0.018l-0.098,-0.065l0.375,0Zm0.003,-0.167c0.023,0 0.042,0.019 0.042,0.042c0,0.023 -0.019,0.041 -0.042,0.041l-0.38,0c-0.023,0 -0.041,-0.018 -0.041,-0.041c0,-0.023 0.018,-0.042 0.041,-0.042l0.38,0Zm0.041,-0.083c0,-0.334 0.268,-0.472 0.268,-0.769c0,-0.31 -0.25,-0.481 -0.5,-0.481c-0.25,0 -0.5,0.17 -0.5,0.481c0,0.297 0.268,0.44 0.268,0.769l0.464,0Zm0.413,-0.603l0.225,0.102l-0.069,0.152l-0.216,-0.098c0.025,-0.05 0.045,-0.101 0.06,-0.156Zm-1.29,0c0.015,0.056 0.035,0.105 0.06,0.156l-0.216,0.098l-0.069,-0.152l0.225,-0.102l0,0Zm1.562,-0.314l0,0.167l-0.251,0c0.002,-0.056 -0.003,-0.112 -0.015,-0.167l0.266,0Zm-1.568,0c-0.012,0.054 -0.017,0.11 -0.015,0.166l0,0.001l-0.251,0l0,-0.167l0.266,0Zm1.155,-0.286l0.207,-0.147l0.096,0.136l-0.209,0.148c-0.024,-0.048 -0.055,-0.094 -0.094,-0.137l0,0Zm-1.008,0c-0.038,0.042 -0.069,0.088 -0.094,0.137l-0.209,-0.148l0.096,-0.136l0.207,0.147Zm0.739,-0.174l0.111,-0.224l0.149,0.073l-0.11,0.225c-0.047,-0.031 -0.097,-0.056 -0.15,-0.074Zm-0.47,0c-0.053,0.018 -0.103,0.043 -0.15,0.073l-0.11,-0.224l0.149,-0.073l0.111,0.224Zm0.318,-0.035c-0.055,-0.006 -0.109,-0.007 -0.166,0l0,-0.255l0.166,0l0,0.255Z" style="fill:#2c3e4f;"/></g></svg>