<?xml version="1.0" encoding="UTF-8" standalone="no"?><!DOCTYPE svg PUBLIC "-//W3C//DTD SVG 1.1//EN" "http://www.w3.org/Graphics/SVG/1.1/DTD/svg11.dtd"><svg width="100%" height="100%" viewBox="0 0 3 3" version="1.1" xmlns="http://www.w3.org/2000/svg" xmlns:xlink="http://www.w3.org/1999/xlink" xml:space="preserve" style="fill-rule:evenodd;clip-rule:evenodd;stroke-linejoin:round;stroke-miterlimit:1.41421;"><rect id="Mesa-de-trabajo1" x="0" y="0" width="3" height="3" style="fill:none;"/><clipPath id="_clip1"><rect x="0" y="0" width="3" height="3"/></clipPath><g clip-path="url(#_clip1)"><path d="M1.529,1.937c-0.85,0 -1.296,-0.152 -1.529,-0.324l0,1.137l3,0l0,-1.119c-0.402,0.278 -1.178,0.306 -1.471,0.306Zm0.221,0.317c0,0.136 -0.112,0.246 -0.25,0.246c-0.138,0 -0.25,-0.11 -0.25,-0.246l0,-0.129l0.5,0l0,0.129Zm-1.75,-1.068l0,-0.311l3,0l0,0.326c0,0.661 -3,0.641 -3,-0.015Zm1.125,-0.936c-0.138,0 -0.25,0.112 -0.25,0.25l0,0.25l0.25,0l0,-0.188c0,-0.034 0.028,-0.062 0.063,-0.062l0.625,0c0.034,0 0.062,0.028 0.062,0.062l0,0.188l0.25,0l0,-0.25c0,-0.138 -0.112,-0.25 -0.25,-0.25l-0.75,0Z" style="fill:#2c3e4f;fill-rule:nonzero;"/></g></svg>