<?xml version="1.0" encoding="UTF-8" standalone="no"?><!DOCTYPE svg PUBLIC "-//W3C//DTD SVG 1.1//EN" "http://www.w3.org/Graphics/SVG/1.1/DTD/svg11.dtd"><svg width="100%" height="100%" viewBox="0 0 3 3" version="1.1" xmlns="http://www.w3.org/2000/svg" xmlns:xlink="http://www.w3.org/1999/xlink" xml:space="preserve" style="fill-rule:evenodd;clip-rule:evenodd;stroke-linejoin:round;stroke-miterlimit:1.41421;"><rect id="Mesa-de-trabajo1" x="0" y="0" width="3" height="3" style="fill:none;"/><clipPath id="_clip1"><rect x="0" y="0" width="3" height="3"/></clipPath><g clip-path="url(#_clip1)"><path d="M1.5,0c-0.828,0 -1.5,0.672 -1.5,1.5c0,0.828 0.672,1.5 1.5,1.5c0.828,0 1.5,-0.672 1.5,-1.5c0,-0.828 -0.672,-1.5 -1.5,-1.5Zm0.969,2.288c-0.032,-0.073 -0.098,-0.124 -0.234,-0.155c-0.286,-0.066 -0.553,-0.124 -0.424,-0.368c0.393,-0.743 0.104,-1.14 -0.311,-1.14c-0.423,0 -0.705,0.412 -0.311,1.14c0.133,0.245 -0.144,0.303 -0.424,0.368c-0.136,0.031 -0.201,0.082 -0.234,0.156c-0.175,-0.216 -0.281,-0.49 -0.281,-0.789c0,-0.689 0.561,-1.25 1.25,-1.25c0.689,0 1.25,0.561 1.25,1.25c0,0.299 -0.106,0.573 -0.281,0.788Z" style="fill:#2c3e4f;fill-rule:nonzero;"/></g></svg>